<svg width="111" height="99" viewBox="0 0 111 99" fill="none" xmlns="http://www.w3.org/2000/svg">
<path fill-rule="evenodd" clip-rule="evenodd" d="M50.3965 20.4663C38.9834 21.8666 29.9907 28.4093 24.9547 38.9752C23.4185 42.1985 22.2065 47.1644 22.209 50.2244C22.2143 57.4388 26.276 64.0833 32.5215 67.0955C35.175 68.3751 38.9954 69.4754 42.2384 69.8943L44.0119 70.1231L41.5084 68.7971C32.979 64.2797 28.8372 58.1782 28.7815 50.05C28.7539 46.0233 29.3991 43.2221 31.0427 40.2339C33.8104 35.2031 39.188 33.2884 44.3024 35.5128C47.4645 36.8879 49.9276 40.5544 51.0686 45.5849C52.0494 49.9091 52.0132 50.0176 49.2799 50.9662C46.4345 51.9539 44.8458 53.2631 45.1416 54.3764C45.4389 55.4931 48.5315 57.089 51.3623 57.5863C56.3816 58.4683 62.5927 56.2251 62.2185 53.6656C62.0699 52.6479 60.2024 51.4063 57.7788 50.7137C55.9329 50.186 55.8943 50.148 55.8943 48.8604C55.8943 47.0999 57.0836 42.6198 58.0476 40.749C60.4873 36.016 64.9607 33.7547 69.6817 34.8683C74.5602 36.0188 77.7114 40.3166 78.5591 46.9743C79.7204 56.094 75.2558 63.9543 66.217 68.7029L63.5203 70.1196L65.2938 69.8926C77.9636 68.2687 85.126 61.0997 85.1182 50.05C85.1104 39.5936 77.8635 28.5443 67.7767 23.6097C62.4023 20.9804 55.8553 19.7964 50.3965 20.4663ZM38.3917 48.421C37.6025 49.2786 37.6515 50.4225 38.5141 51.2707C39.3664 52.1087 40.2117 52.1558 41.2726 51.4252C42.209 50.7807 42.331 49.1446 41.5038 48.331C40.7512 47.5913 39.1118 47.6384 38.3917 48.421ZM65.8247 48.3073C64.7404 49.5921 65.8127 51.9682 67.4769 51.9682C68.4594 51.9682 69.7275 50.8326 69.7275 49.9534C69.7275 49.6123 69.4788 48.9846 69.1752 48.5584C68.5219 47.6408 66.5143 47.4905 65.8247 48.3073Z" fill="#45B4EB"/>
<path fill-rule="evenodd" clip-rule="evenodd" d="M53.5172 0.141129C49.8699 0.455739 45.9187 1.3035 38.3198 3.40232C29.4958 5.83933 27.1032 6.32563 20.8562 6.95171C13.9961 7.63926 11.5669 8.06236 8.59969 9.08606C4.26826 10.5805 1.4688 13.3173 0.453269 17.0504C-0.00314383 18.728 -0.00410643 22.1822 0.450541 25.8236C1.14736 31.4025 1.3478 35.413 1.35037 43.826C1.35294 52.2197 1.26916 53.8815 0.517141 60.3348C-0.0612381 65.3 -0.0907669 70.12 0.445727 72.0482C1.19711 74.7489 2.64964 76.804 4.70686 78.0769C7.02375 79.5105 9.98129 80.8136 17.2454 83.6018C25.5714 86.7978 27.8685 87.8946 33.1901 91.2152C40.6548 95.873 44.4931 97.67 48.7104 98.4811C50.8426 98.8913 54.4528 98.8558 56.6439 98.4031C58.0938 98.1036 58.7769 97.8368 61.5386 96.4916C63.3039 95.6315 67.3842 93.5057 70.6059 91.7672C77.8221 87.8734 82.1619 85.7304 86.0172 84.1568C94.0402 80.8824 97.7594 78.1637 99.8925 74.0135C101.099 71.6666 101.272 70.7901 102.389 61.3568C103.931 48.3466 104.922 43.3841 107.68 34.8641C109.687 28.6631 110.345 25.4079 110.205 22.3646C109.997 17.8464 107.623 14.6685 102.802 12.4561C100.678 11.4812 99.5647 11.1459 93.2339 9.57409C83.3244 7.11397 77.0233 5.24061 66.2674 1.55695C62.2863 0.193485 58.1882 -0.261528 53.5172 0.141129ZM59.1314 5.47378C63.4352 5.84248 71.0815 7.84853 88.8207 13.2633C92.0865 14.2601 95.6712 15.3534 96.7867 15.6927C102.527 17.4392 104.628 19.6803 104.628 24.0578C104.628 26.1796 104.443 27.085 102.217 35.8275C99.6317 45.9786 99.066 48.693 97.9603 56.2469C96.5793 65.6804 95.8008 69.8785 95.1761 71.2625C94.5387 72.6743 93.0455 73.8461 89.6852 75.5721C87.4771 76.7062 84.9784 77.7629 81.6671 78.9632C77.7764 80.3733 74.6879 81.6296 68.0381 84.5067C60.6965 87.683 56.5397 89.3428 55.1631 89.6473C53.5986 89.9936 51.5694 90.0925 49.9838 89.8999C46.6089 89.49 43.6971 88.3927 38.1499 85.4401C32.3527 82.3546 29.9766 81.3241 21.3571 78.1564C12.583 74.932 9.5199 73.5807 8.31596 72.4031C7.45128 71.5572 6.70375 70.1344 6.3945 68.7464C6.06824 67.2822 6.1626 63.8319 6.63073 60.099C7.68221 51.7155 7.77433 42.1239 6.95972 25.8392C6.67005 20.0473 6.74917 18.8879 7.54291 17.3007C8.42075 15.5456 9.91148 14.6401 13.4191 13.7313C20.0991 12.0007 30.9464 9.56733 37.2292 8.39017C45.8461 6.77546 53.0351 5.66056 56.9648 5.32913C57.0972 5.31797 58.0722 5.38306 59.1314 5.47378Z" fill="#45B4EB"/>
</svg>
